# xmcd
#
# Track frame offsets:
# 150
# 21454
# 36848
# 49617
# 81133
# 94712
# 110076
# 122050
# 141044
#
# Disc length: 2168 seconds
#
#
# Revision: 0
# Processed by: cddbd v1.5.1PL0 Copyright (c) Steve Scherf et al.
# Submitted via: FreeRIP 2.60 
#
DISCID=75087609
DTITLE=The Lamont Cranston Band - The Lamont Cranston Band
DYEAR=1976
DGENRE=Blues
TTITLE0=Stranger Blues
TTITLE1=(Ain't Nobody Here But Us) Chickens
TTITLE2=It Ain't You
TTITLE3=Soul Flight
TTITLE4=Goin' On Down The Line
TTITLE5=One Eye Open
TTITLE6=Rock Awhile
TTITLE7=Sneaky Pete
TTITLE8=Bullfrog Rag
EXTD=The Bands First Release\nShadow Records\nCopied To CD from LP\nPurchased at Concert
EXTT0=
EXTT1=
EXTT2=
EXTT3=
EXTT4=
EXTT5=
EXTT6=
EXTT7=
EXTT8=
PLAYORDER=
